<svg width="20" height="19" viewBox="0 0 20 19" fill="none" xmlns="http://www.w3.org/2000/svg">
<path d="M6.5 3C6.10218 3 5.72064 3.15804 5.43934 3.43934C5.15804 3.72064 5 4.10218 5 4.5C5 4.89782 5.15804 5.27936 5.43934 5.56066C5.72064 5.84196 6.10218 6 6.5 6C6.89782 6 7.27936 5.84196 7.56066 5.56066C7.84196 5.27936 8 4.89782 8 4.5C8 4.10218 7.84196 3.72064 7.56066 3.43934C7.27936 3.15804 6.89782 3 6.5 3ZM8 0C9.32608 0 10.5979 0.526784 11.5355 1.46447C12.4732 2.40215 13 3.67392 13 5C13 6.7 12.15 8.2 10.86 9.1C12.44 9.25 14.22 9.61 16 10.5C19 12 20 10 20 10C20 10 19 19 13 19H7C7 19 2 19 2 14C2 11 5 10 4 8C0 8 0 4.5 0 4.5C1 5 2.24 5 3 4.65C3.09333 3.3872 3.66043 2.20632 4.58766 1.34399C5.5149 0.481665 6.73376 0.00160078 8 0Z" fill="white"/>
</svg>
