<svg width="14" height="13" viewBox="0 0 14 13" fill="none" xmlns="http://www.w3.org/2000/svg">
<path d="M4.55 2.05263C4.27152 2.05263 4.00445 2.16076 3.80754 2.35323C3.61062 2.5457 3.5 2.80675 3.5 3.07895C3.5 3.35114 3.61062 3.61219 3.80754 3.80466C4.00445 3.99713 4.27152 4.10526 4.55 4.10526C4.82848 4.10526 5.09555 3.99713 5.29246 3.80466C5.48938 3.61219 5.6 3.35114 5.6 3.07895C5.6 2.80675 5.48938 2.5457 5.29246 2.35323C5.09555 2.16076 4.82848 2.05263 4.55 2.05263ZM5.6 0C6.52826 0 7.4185 0.360431 8.07487 1.002C8.73125 1.64357 9.1 2.51373 9.1 3.42105C9.1 4.58421 8.505 5.61053 7.602 6.22632C8.708 6.32895 9.954 6.57526 11.2 7.18421C13.3 8.21053 14 6.84211 14 6.84211C14 6.84211 13.3 13 9.1 13H4.9C4.9 13 1.4 13 1.4 9.57895C1.4 7.52632 3.5 6.84211 2.8 5.47368C0 5.47368 0 3.07895 0 3.07895C0.7 3.42105 1.568 3.42105 2.1 3.18158C2.16533 2.31756 2.5623 1.50959 3.21136 0.919574C3.86043 0.32956 4.71363 0.00109527 5.6 0Z" fill="#DB3571"/>
</svg>
