<svg width="141" height="86" viewBox="0 0 141 86" fill="none" xmlns="http://www.w3.org/2000/svg">
<rect width="141" height="86" rx="5" fill="#D9D9D9"/>
<rect x="0.5" y="0.5" width="140" height="85" rx="4.5" stroke="black" stroke-opacity="0.15"/>
<path fill-rule="evenodd" clip-rule="evenodd" d="M66.473 34.2653C69.4818 33.9116 72.5182 33.9116 75.527 34.2653C77.1929 34.4634 78.5369 35.8549 78.7323 37.6281C79.0892 40.865 79.0892 44.135 78.7323 47.3719C78.5369 49.1451 77.1929 50.5366 75.527 50.7346C72.5182 51.0885 69.4818 51.0885 66.473 50.7346C64.8071 50.5366 63.4631 49.1451 63.2677 47.3719C62.9108 44.1353 62.9108 40.8657 63.2677 37.6291C63.3665 36.7677 63.7368 35.9669 64.3184 35.3565C64.9 34.7462 65.6589 34.362 66.472 34.2663M71 37.3496C71.1934 37.3496 71.379 37.4311 71.5157 37.5762C71.6525 37.7213 71.7294 37.918 71.7294 38.1232V41.7263H75.1263C75.3197 41.7263 75.5053 41.8078 75.6421 41.9529C75.7788 42.098 75.8557 42.2948 75.8557 42.5C75.8557 42.7052 75.7788 42.9019 75.6421 43.047C75.5053 43.1921 75.3197 43.2736 75.1263 43.2736H71.7294V46.8767C71.7294 47.0819 71.6525 47.2787 71.5157 47.4238C71.379 47.5689 71.1934 47.6504 71 47.6504C70.8066 47.6504 70.621 47.5689 70.4843 47.4238C70.3475 47.2787 70.2706 47.0819 70.2706 46.8767V43.2736H66.8737C66.6802 43.2736 66.4947 43.1921 66.3579 43.047C66.2212 42.9019 66.1443 42.7052 66.1443 42.5C66.1443 42.2948 66.2212 42.098 66.3579 41.9529C66.4947 41.8078 66.6802 41.7263 66.8737 41.7263H70.2706V38.1232C70.2706 37.918 70.3475 37.7213 70.4843 37.5762C70.621 37.4311 70.8066 37.3496 71 37.3496Z" fill="white"/>
</svg>
