<svg width="17" height="23" viewBox="0 0 17 23" fill="none" xmlns="http://www.w3.org/2000/svg">
<path d="M2.71316 14.935C1.71728 14.0015 0.957663 12.8383 0.498591 11.5439C0.0395187 10.2494 -0.105494 8.86183 0.0758243 7.49848C0.255109 6.11607 0.762056 4.79839 1.55322 3.65838C2.34437 2.51836 3.39615 1.59001 4.61839 0.952899C5.84064 0.315786 7.1969 -0.0110899 8.57093 0.00028713C9.94496 0.0116642 11.2958 0.360955 12.5076 1.01822C13.7195 1.67549 14.7562 2.62113 15.5289 3.77409C16.3016 4.92706 16.7873 6.25296 16.9443 7.63815C17.1014 9.02335 16.925 10.4265 16.4305 11.7274C15.9359 13.0283 15.1379 14.1881 14.1048 15.1074C13.4396 15.6878 12.9231 16.4233 12.5996 17.2509H9.44768V10.3673C9.99811 10.1698 10.475 9.80461 10.813 9.32162C11.1511 8.83863 11.3338 8.26145 11.3362 7.66904C11.3362 7.41491 11.2367 7.17119 11.0596 6.9915C10.8826 6.8118 10.6424 6.71085 10.392 6.71085C10.1415 6.71085 9.90134 6.8118 9.72425 6.9915C9.54717 7.17119 9.44768 7.41491 9.44768 7.66904C9.44768 7.92316 9.3482 8.16688 9.17111 8.34658C8.99403 8.52627 8.75385 8.62722 8.50342 8.62722C8.25298 8.62722 8.0128 8.52627 7.83572 8.34658C7.65863 8.16688 7.55915 7.92316 7.55915 7.66904C7.55915 7.41491 7.45966 7.17119 7.28258 6.9915C7.10549 6.8118 6.86531 6.71085 6.61488 6.71085C6.36444 6.71085 6.12427 6.8118 5.94718 6.9915C5.7701 7.17119 5.67061 7.41491 5.67061 7.66904C5.67303 8.26145 5.85577 8.83863 6.19382 9.32162C6.53187 9.80461 7.00873 10.1698 7.55915 10.3673V17.2509H4.3137C3.9527 16.3699 3.40647 15.5795 2.71316 14.935ZM4.72634 19.1673V19.4643C4.72734 20.4017 5.09476 21.3004 5.74799 21.9633C6.40122 22.6261 7.28689 22.999 8.21069 23H8.79614C9.71994 22.999 10.6056 22.6261 11.2588 21.9633C11.9121 21.3004 12.2795 20.4017 12.2805 19.4643V19.1673H4.72634Z" fill="#949494"/>
</svg>
