<svg width="90" height="90" viewBox="0 0 90 90" fill="none" xmlns="http://www.w3.org/2000/svg">
<rect width="90" height="90" rx="45" fill="#EDEDED"/>
<rect x="6" y="6" width="77" height="77" rx="38.5" fill="#D9D9D9"/>
<rect x="12" y="12" width="66" height="66" rx="33" fill="#C9C9C9"/>
<rect x="24" y="25" width="9.00001" height="9.00001" rx="4.5" fill="#00FFF0"/>
<rect x="40" y="25" width="9.00001" height="9.00001" rx="4.5" fill="#EEEEEE"/>
<rect x="56" y="25" width="9.00001" height="9.00001" rx="4.5" fill="#4D73CB"/>
<rect x="24" y="40.8" width="9.00001" height="9.00001" rx="4.5" fill="#EEEEEE"/>
<rect x="40" y="40.8" width="9.00001" height="9.00001" rx="4.5" fill="#FE3273"/>
<rect x="56" y="40.8" width="9.00001" height="9.00001" rx="4.5" fill="#EEEEEE"/>
<rect x="24" y="56.6" width="9.00001" height="9.00001" rx="4.5" fill="#FFB617"/>
<rect x="40" y="56.6" width="9.00001" height="9.00001" rx="4.5" fill="#EEEEEE"/>
<rect x="56" y="56.6" width="9.00001" height="9.00001" rx="4.5" fill="#00FF85"/>
</svg>
