<svg width="23" height="21" viewBox="0 0 23 21" fill="none" xmlns="http://www.w3.org/2000/svg">
<path d="M16.7687 0C15.69 0.0164268 14.6348 0.311238 13.7098 0.85466C12.7847 1.39808 12.0224 2.17087 11.5 3.09499C10.9776 2.17087 10.2153 1.39808 9.29024 0.85466C8.36516 0.311238 7.30999 0.0164268 6.23129 0C4.51172 0.0731457 2.89161 0.809626 1.7249 2.04854C0.558196 3.28746 -0.0602639 4.9281 0.00463752 6.61203C0.00463752 12.9661 10.4999 20.305 10.9463 20.6164L11.5 21L12.0537 20.6164C12.5001 20.3069 22.9954 12.9661 22.9954 6.61203C23.0603 4.9281 22.4418 3.28746 21.2751 2.04854C20.1084 0.809626 18.4883 0.0731457 16.7687 0Z" fill="#949494"/>
</svg>
