<svg width="30" height="30" viewBox="0 0 30 30" fill="none" xmlns="http://www.w3.org/2000/svg">
<rect x="0.505356" width="29.3292" height="29.3292" rx="14.6646" fill="#FFB617"/>
<path d="M15.5037 16.0372V13.7554H23.2027C23.278 14.1528 23.317 14.6232 23.317 15.1326C23.317 16.8445 22.8487 18.9614 21.3381 20.4694C19.8692 21.9968 17.9927 22.8117 15.5065 22.8117C10.8979 22.8117 7.02296 19.063 7.02296 14.461C7.02296 9.85911 10.8979 6.11035 15.5065 6.11035C18.0561 6.11035 19.872 7.10965 21.2363 8.41166L19.6239 10.0213C18.6456 9.10477 17.3196 8.39218 15.5037 8.39218C12.1389 8.39218 9.50707 11.1006 9.50707 14.461C9.50707 17.8215 12.1389 20.5299 15.5037 20.5299C17.6861 20.5299 18.9292 19.6545 19.7257 18.8591C20.3716 18.214 20.7967 17.2926 20.9639 16.0344L15.5037 16.0372Z" fill="white"/>
</svg>
