<svg width="45" height="45" viewBox="0 0 45 45" fill="none" xmlns="http://www.w3.org/2000/svg">
<rect width="45" height="45" rx="9" fill="#FF7878"/>
<path d="M29.545 21.5585C29.6384 22.0954 29.6849 22.6395 29.684 23.1845C29.684 25.6185 28.814 27.6765 27.3 29.0695H27.302C25.978 30.2925 24.158 31.0005 22 31.0005C19.8783 31.0005 17.8434 30.1576 16.3431 28.6573C14.8429 27.157 14 25.1222 14 23.0005C14 20.8787 14.8429 18.8439 16.3431 17.3436C17.8434 15.8433 19.8783 15.0005 22 15.0005C23.9857 14.9784 25.9032 15.7243 27.352 17.0825L25.068 19.3665C24.2422 18.5797 23.1404 18.1488 22 18.1665C19.913 18.1665 18.14 19.5745 17.508 21.4705C17.1735 22.4641 17.1735 23.5399 17.508 24.5335H17.511C18.146 26.4265 19.916 27.8345 22.003 27.8345C23.081 27.8345 24.007 27.5585 24.725 27.0705H24.722C25.139 26.7944 25.4957 26.4366 25.7705 26.0188C26.0453 25.6009 26.2326 25.1317 26.321 24.6395H22V21.5595L29.545 21.5585Z" fill="white"/>
</svg>
