<svg width="30" height="30" viewBox="0 0 30 30" fill="none" xmlns="http://www.w3.org/2000/svg">
<rect x="0.660034" width="29.3292" height="29.3292" rx="14.6646" fill="#FE3273"/>
<path d="M15.121 7.61487C17.3506 7.61487 17.6151 7.62322 18.4954 7.66358C19.4056 7.70533 20.3429 7.91271 21.0061 8.57589C21.6756 9.24534 21.8767 10.1737 21.9184 11.0867C21.9588 11.967 21.9672 12.2314 21.9672 14.461C21.9672 16.6907 21.9588 16.9551 21.9184 17.8354C21.8774 18.7408 21.6651 19.6872 21.0061 20.3462C20.3367 21.0156 19.4091 21.2167 18.4954 21.2585C17.6151 21.2989 17.3506 21.3072 15.121 21.3072C12.8913 21.3072 12.6269 21.2989 11.7466 21.2585C10.8482 21.2174 9.88928 21.0003 9.23584 20.3462C8.56987 19.6802 8.36528 18.7429 8.32352 17.8354C8.28316 16.9551 8.27481 16.6907 8.27481 14.461C8.27481 12.2314 8.28316 11.967 8.32352 11.0867C8.36458 10.1848 8.57891 9.23281 9.23584 8.57589C9.90389 7.90784 10.8357 7.70533 11.7466 7.66358C12.6269 7.62322 12.8913 7.61487 15.121 7.61487ZM15.121 6.11035C12.8531 6.11035 12.5685 6.12009 11.6777 6.16046C10.3868 6.21961 9.10501 6.57869 8.17182 7.51188C7.23515 8.44854 6.87955 9.72759 6.8204 11.0178C6.78004 11.9085 6.77029 12.1931 6.77029 14.461C6.77029 16.7289 6.78004 17.0136 6.8204 17.9043C6.87955 19.1938 7.24002 20.4791 8.17182 21.4102C9.10779 22.3462 10.3889 22.7025 11.6777 22.7616C12.5685 22.802 12.8531 22.8117 15.121 22.8117C17.3889 22.8117 17.6735 22.802 18.5642 22.7616C19.8544 22.7025 21.1377 22.3427 22.0701 21.4102C23.0075 20.4728 23.3624 19.1945 23.4216 17.9043C23.4619 17.0136 23.4717 16.7289 23.4717 14.461C23.4717 12.1931 23.4619 11.9085 23.4216 11.0178C23.3624 9.7269 23.0026 8.44437 22.0701 7.51188C21.1356 6.57729 19.851 6.21891 18.5642 6.16046C17.6735 6.12009 17.3889 6.11035 15.121 6.11035Z" fill="white"/>
<path d="M15.121 10.1729C12.7529 10.1729 10.8329 12.0928 10.8329 14.4609C10.8329 16.829 12.7529 18.749 15.121 18.749C17.4891 18.749 19.4091 16.829 19.4091 14.4609C19.4091 12.0928 17.4891 10.1729 15.121 10.1729ZM15.121 17.2445C13.5838 17.2445 12.3374 15.9982 12.3374 14.4609C12.3374 12.9237 13.5838 11.6774 15.121 11.6774C16.6582 11.6774 17.9045 12.9237 17.9045 14.4609C17.9045 15.9982 16.6582 17.2445 15.121 17.2445Z" fill="white"/>
<path d="M19.5789 11.0051C20.1323 11.0051 20.5809 10.5565 20.5809 10.0031C20.5809 9.44962 20.1323 9.00098 19.5789 9.00098C19.0254 9.00098 18.5768 9.44962 18.5768 10.0031C18.5768 10.5565 19.0254 11.0051 19.5789 11.0051Z" fill="white"/>
</svg>
