<svg width="30" height="30" viewBox="0 0 30 30" fill="none" xmlns="http://www.w3.org/2000/svg">
<rect x="0.670746" width="29.3292" height="29.3292" rx="14.6646" fill="#FF0000"/>
<path d="M15.3354 6.11035C13.4994 6.11239 11.7391 6.84962 10.4409 8.16029C9.14266 9.47096 8.41242 11.248 8.4104 13.1016C8.4104 16.7944 14.2274 21.8637 14.888 22.43L15.3354 22.8117L15.7827 22.43C16.4434 21.8637 22.2603 16.7944 22.2603 13.1016C22.2583 11.248 21.5281 9.47096 20.2298 8.16029C18.9316 6.84962 17.1714 6.11239 15.3354 6.11035ZM15.3354 16.5972C14.6505 16.5972 13.9811 16.3922 13.4117 16.0081C12.8423 15.624 12.3985 15.0781 12.1364 14.4393C11.8744 13.8006 11.8058 13.0977 11.9394 12.4196C12.073 11.7415 12.4028 11.1187 12.887 10.6298C13.3713 10.1409 13.9882 9.80802 14.6599 9.67314C15.3315 9.53826 16.0277 9.60749 16.6604 9.87206C17.2931 10.1366 17.8338 10.5847 18.2143 11.1595C18.5948 11.7344 18.7978 12.4102 18.7978 13.1016C18.7967 14.0283 18.4316 14.9168 17.7825 15.5721C17.1334 16.2275 16.2533 16.5961 15.3354 16.5972Z" fill="white"/>
<path d="M15.3354 15.072C16.4602 15.072 17.3721 14.1602 17.3721 13.0353C17.3721 11.9104 16.4602 10.9985 15.3354 10.9985C14.2105 10.9985 13.2986 11.9104 13.2986 13.0353C13.2986 14.1602 14.2105 15.072 15.3354 15.072Z" fill="white"/>
</svg>
