<svg width="24" height="24" viewBox="0 0 24 24" fill="none" xmlns="http://www.w3.org/2000/svg">
<path d="M19.6714 2.76083C18.4033 1.70662 16.9305 0.926233 15.3456 0.468832C13.7607 0.01143 12.0982 -0.113068 10.4628 0.103181C7.4373 0.495847 4.67483 2.0241 2.73625 4.37762C0.797676 6.73114 -0.171683 9.73352 0.0250014 12.7751C0.221686 15.8167 1.56967 18.6695 3.79525 20.7543C6.02082 22.8391 8.95716 23.9995 12.008 24H18.9958C20.3225 23.9984 21.5944 23.4712 22.5326 22.534C23.4707 21.5968 23.9984 20.3261 24 19.0007V11.3107V11.2477C23.8941 9.61336 23.4556 8.01778 22.7113 6.55854C21.967 5.09929 20.9327 3.80705 19.6714 2.76083ZM7.98669 7.00226H11.99C12.2555 7.00226 12.51 7.10761 12.6977 7.29512C12.8854 7.48263 12.9909 7.73695 12.9909 8.00213C12.9909 8.26731 12.8854 8.52163 12.6977 8.70914C12.51 8.89665 12.2555 9.002 11.99 9.002H7.98669C7.72126 9.002 7.46669 8.89665 7.279 8.70914C7.09131 8.52163 6.98586 8.26731 6.98586 8.00213C6.98586 7.73695 7.09131 7.48263 7.279 7.29512C7.46669 7.10761 7.72126 7.00226 7.98669 7.00226ZM15.9933 17.0009H7.98669C7.72126 17.0009 7.46669 16.8956 7.279 16.7081C7.09131 16.5206 6.98586 16.2662 6.98586 16.0011C6.98586 15.7359 7.09131 15.4816 7.279 15.2941C7.46669 15.1065 7.72126 15.0012 7.98669 15.0012H15.9933C16.2588 15.0012 16.5133 15.1065 16.701 15.2941C16.8887 15.4816 16.9942 15.7359 16.9942 16.0011C16.9942 16.2662 16.8887 16.5206 16.701 16.7081C16.5133 16.8956 16.2588 17.0009 15.9933 17.0009ZM15.9933 13.0015H7.98669C7.72126 13.0015 7.46669 12.8961 7.279 12.7086C7.09131 12.5211 6.98586 12.2668 6.98586 12.0016C6.98586 11.7364 7.09131 11.4821 7.279 11.2946C7.46669 11.1071 7.72126 11.0017 7.98669 11.0017H15.9933C16.2588 11.0017 16.5133 11.1071 16.701 11.2946C16.8887 11.4821 16.9942 11.7364 16.9942 12.0016C16.9942 12.2668 16.8887 12.5211 16.701 12.7086C16.5133 12.8961 16.2588 13.0015 15.9933 13.0015Z" fill="#949494"/>
</svg>
