<svg width="43" height="43" viewBox="0 0 43 43" fill="none" xmlns="http://www.w3.org/2000/svg">
<path d="M21.5 25.0833C20.007 25.0833 18.7379 24.5607 17.6927 23.5155C16.6476 22.4704 16.125 21.2013 16.125 19.7083V8.95825C16.125 7.4652 16.6476 6.1961 17.6927 5.15096C18.7379 4.10582 20.007 3.58325 21.5 3.58325C22.9931 3.58325 24.2622 4.10582 25.3073 5.15096C26.3524 6.1961 26.875 7.4652 26.875 8.95825V19.7083C26.875 21.2013 26.3524 22.4704 25.3073 23.5155C24.2622 24.5607 22.9931 25.0833 21.5 25.0833ZM19.7083 37.6249V32.1155C16.6028 31.6975 14.0347 30.3089 12.0042 27.9499C9.97362 25.5909 8.95834 22.8437 8.95834 19.7083H12.5417C12.5417 22.1867 13.4154 24.2997 15.1629 26.0472C16.9104 27.7946 19.0227 28.6678 21.5 28.6666C23.9785 28.6666 26.0915 27.7929 27.8389 26.0454C29.5864 24.2979 30.4595 22.1855 30.4583 19.7083H34.0417C34.0417 22.8437 33.0264 25.5909 30.9958 27.9499C28.9653 30.3089 26.3972 31.6975 23.2917 32.1155V37.6249H19.7083Z" fill="white"/>
</svg>
