<svg width="25" height="28" viewBox="0 0 25 28" fill="none" xmlns="http://www.w3.org/2000/svg">
<path d="M0.467928 20.8388C1.42554 22.5008 3.54919 23.0718 5.2112 22.1142C5.21234 22.1135 5.21342 22.1129 5.21456 22.1122L5.72972 21.8147C6.7022 22.6467 7.82001 23.292 9.02687 23.718V24.3119C9.02687 26.2301 10.5819 27.7851 12.5 27.7851C14.4181 27.7851 15.9731 26.2301 15.9731 24.3119V23.718C17.1802 23.2913 18.298 22.6453 19.2703 21.8124L19.7878 22.1111C21.4502 23.0702 23.5753 22.5 24.5344 20.8376C25.4935 19.1752 24.9233 17.05 23.2609 16.091L22.7469 15.7946C22.9783 14.5356 22.9783 13.2448 22.7469 11.9857L23.2609 11.6894C24.9233 10.7303 25.4935 8.60518 24.5344 6.94274C23.5753 5.28036 21.4502 4.71017 19.7878 5.66924L19.2726 5.96679C18.2992 5.13579 17.1806 4.49174 15.9731 4.06704V3.47313C15.9731 1.55499 14.4181 0 12.5 0C10.5819 0 9.02687 1.55499 9.02687 3.47313V4.06704C7.81984 4.49375 6.70198 5.13975 5.72972 5.97265L5.21223 5.67282C3.54979 4.71369 1.42467 5.28388 0.465595 6.94627C-0.493479 8.60865 0.0766579 10.7338 1.73909 11.6929L2.25312 11.9893C2.02172 13.2483 2.02172 14.539 2.25312 15.7981L1.73909 16.0945C0.0812707 17.0561 -0.487021 19.1771 0.467928 20.8388ZM12.5 9.26171C15.0575 9.26171 17.1308 11.335 17.1308 13.8925C17.1308 16.4501 15.0575 18.5234 12.5 18.5234C9.94247 18.5234 7.86917 16.4501 7.86917 13.8925C7.86917 11.335 9.94247 9.26171 12.5 9.26171Z" fill="#949494"/>
</svg>
