<svg width="30" height="30" viewBox="0 0 30 30" fill="none" xmlns="http://www.w3.org/2000/svg">
<rect x="0.0107117" width="29.3292" height="29.3292" rx="14.6646" fill="#00FF85"/>
<path d="M22.4138 17.3068C22.4138 17.3068 16.3362 14.5442 16.3146 14.5372C15.808 14.3647 15.2583 14.492 14.8797 14.8706C14.5012 15.2491 14.3738 15.7988 14.5722 16.3674L17.3166 22.404C17.4273 22.6482 17.6687 22.8069 17.9373 22.8117H17.9505C18.2136 22.8117 18.455 22.6628 18.5733 22.4269L19.8614 19.8508L22.4374 18.5628C22.6775 18.4424 22.8271 18.1961 22.8222 17.9275C22.8174 17.6596 22.6587 17.4181 22.4145 17.3068H22.4138ZM19.0312 18.7096C18.8969 18.7771 18.787 18.8864 18.7202 19.0207L17.9798 20.5015L15.8616 15.8559L20.5106 17.9699L19.0319 18.7089L19.0312 18.7096ZM15.1059 21.3915C14.9862 21.4019 14.8658 21.4096 14.744 21.4144C14.2792 20.9545 13.067 19.6623 12.2222 17.9407H12.7316C13.1157 17.9407 13.4275 17.6296 13.4275 17.2448C13.4275 16.86 13.1157 16.549 12.7316 16.549H11.667C11.4645 15.8865 11.3399 15.1851 11.3399 14.4614C11.3399 13.7377 11.4652 13.037 11.6683 12.3738H17.2749C17.357 12.6431 17.4266 12.9187 17.4801 13.1998C17.5525 13.5776 17.9178 13.8268 18.2936 13.753C18.6708 13.6813 18.9185 13.3167 18.8468 12.9395C18.8106 12.7482 18.7675 12.5596 18.7195 12.3738H21.0805C21.0895 12.3738 21.0993 12.3738 21.1083 12.3738C21.3164 13.0335 21.4284 13.7349 21.4284 14.4621C21.4284 14.6757 21.4187 14.8866 21.3999 15.0953C21.3658 15.478 21.6476 15.8162 22.0303 15.851C22.4145 15.8886 22.752 15.6033 22.786 15.2206C22.8083 14.9708 22.8201 14.7175 22.8201 14.4621C22.8215 9.85618 19.0757 6.11035 14.4713 6.11035C9.86677 6.11035 6.12097 9.85618 6.12097 14.4607C6.12097 19.0652 9.86677 22.811 14.4706 22.811C14.7259 22.811 14.9785 22.7992 15.2277 22.7769C15.6104 22.7428 15.8936 22.4053 15.8595 22.0219C15.8254 21.6399 15.4886 21.3574 15.1052 21.3908L15.1059 21.3915ZM10.221 16.549H7.86061C7.85157 16.549 7.84252 16.549 7.83278 16.549C7.62472 15.8893 7.51269 15.1879 7.51269 14.4607C7.51269 13.7335 7.62472 13.0321 7.83278 12.3724C7.84183 12.3724 7.85087 12.3724 7.86061 12.3724H10.221C10.0505 13.037 9.94818 13.7356 9.94818 14.46C9.94818 15.1844 10.0498 15.883 10.221 16.5476V16.549ZM12.2257 10.9821C12.9362 9.53677 13.9062 8.39069 14.4726 7.78947C15.0398 8.38999 16.0098 9.53399 16.7203 10.9821H12.2257ZM20.496 10.9821H18.2498C17.6993 9.66968 16.936 8.55491 16.2791 7.74145C18.0737 8.22508 19.5837 9.40943 20.496 10.9821ZM12.662 7.74145C12.0051 8.55491 11.2411 9.66968 10.6914 10.9814H8.44653C9.3581 9.40874 10.8674 8.22438 12.662 7.74145ZM8.44653 17.94H10.6914C11.2411 19.2524 12.0051 20.3665 12.662 21.1799C10.8681 20.6963 9.35879 19.512 8.44653 17.94Z" fill="white"/>
</svg>
