<svg width="45" height="45" viewBox="0 0 45 45" fill="none" xmlns="http://www.w3.org/2000/svg">
<rect width="45" height="45" rx="9" fill="#676767"/>
<path d="M27.6371 30.28C26.6571 31.23 25.5871 31.08 24.5571 30.63C23.4671 30.17 22.4671 30.15 21.3171 30.63C19.8771 31.25 19.1171 31.07 18.2571 30.28C13.3771 25.25 14.0971 17.59 19.6371 17.31C20.9871 17.38 21.9271 18.05 22.7171 18.11C23.8971 17.87 25.0271 17.18 26.2871 17.27C27.7971 17.39 28.9371 17.99 29.6871 19.07C26.5671 20.94 27.3071 25.05 30.1671 26.2C29.5971 27.7 28.8571 29.19 27.6271 30.29L27.6371 30.28ZM22.6171 17.25C22.4671 15.02 24.2771 13.18 26.3571 13C26.6471 15.58 24.0171 17.5 22.6171 17.25Z" fill="white"/>
</svg>
