<svg width="17" height="14" viewBox="0 0 17 14" fill="none" xmlns="http://www.w3.org/2000/svg">
<path d="M1.29617 5.23142L0.648083 5.8795L0 5.23142L0.648083 4.58333L1.29617 5.23142ZM16.8795 12.5647C16.8795 12.8079 16.7829 13.041 16.611 13.2129C16.4391 13.3848 16.2059 13.4814 15.9628 13.4814C15.7197 13.4814 15.4866 13.3848 15.3147 13.2129C15.1427 13.041 15.0462 12.8079 15.0462 12.5647H16.8795ZM5.23142 10.4628L0.648083 5.8795L1.94425 4.58333L6.52758 9.16667L5.23142 10.4628ZM0.648083 4.58333L5.23142 0L6.52758 1.29617L1.94425 5.8795L0.648083 4.58333ZM1.29617 4.31475H10.4628V6.14808H1.29617V4.31475ZM16.8795 10.7314V12.5647H15.0462V10.7314H16.8795ZM10.4628 4.31475C12.1646 4.31475 13.7967 4.99079 15.0001 6.19415C16.2035 7.39751 16.8795 9.02961 16.8795 10.7314H15.0462C15.0462 9.51584 14.5633 8.35005 13.7037 7.49051C12.8442 6.63097 11.6784 6.14808 10.4628 6.14808V4.31475Z" fill="#949494"/>
</svg>
